<svg xmlns="http://www.w3.org/2000/svg" viewBox="0 0 1200.5 1200"><defs><style>.cls-1,.cls-6{fill:#fff;}.cls-2{fill:#f1f2f2;}.cls-3{fill:#ffb531;}.cls-4{fill:#ffcb31;}.cls-4,.cls-5,.cls-6,.cls-7,.cls-8{stroke:#231f20;stroke-linejoin:round;stroke-width:5.86px;}.cls-5,.cls-7{fill:none;}.cls-7{stroke-dasharray:5.86;}.cls-8{fill:#d1d3d4;}</style></defs><title>Asset 6</title><g id="Layer_2" data-name="Layer 2"><g id="Background"><rect class="cls-1" width="1200" height="1200"/><rect class="cls-2" x="0.5" width="1200" height="1200"/></g><g id="Element"><rect class="cls-3" x="524.52" y="287.86" width="470.57" height="66.69"/><polygon class="cls-4" points="524.52 343.44 524.52 239.69 231.81 239.69 231.81 342.32 231.81 385.57 231.81 876.99 995.09 876.99 995.09 343.44 524.52 343.44"/><line class="cls-5" x1="524.52" y1="343.44" x2="454.12" y2="343.44"/><polyline class="cls-6" points="832.06 699.14 832.06 539.82 887.72 539.82 792.82 413.18 697.93 539.82 746.84 539.82 746.84 699.14"/><polyline class="cls-6" points="958.03 465.71 958.03 625.04 901.72 625.04 996.61 751.68 1091.5 625.04 1043.26 625.04 1043.26 465.71"/><line class="cls-5" x1="924.69" y1="465.71" x2="1072.9" y2="465.71"/><line class="cls-5" x1="717.2" y1="699.14" x2="857.99" y2="699.14"/><line class="cls-7" x1="998.79" y1="676.91" x2="998.79" y2="502.77"/><line class="cls-7" x1="791.3" y1="665.8" x2="791.3" y2="495.35"/><path class="cls-1" d="M222.26,763.18a119.87,119.87,0,0,1,68.5,21.09,88.68,88.68,0,0,1,52-29.06A120.77,120.77,0,1,1,579.52,766a120.73,120.73,0,0,1,27.82-2.77C674,763.18,728.08,814,728.08,884.4H101.5C101.5,814,155.55,763.18,222.26,763.18Z"/><path class="cls-8" d="M579.52,766s-14.76,11.83-19.59,14.35"/><path class="cls-8" d="M290.76,784s6.67,11.4,6.94,20.17"/></g></g></svg>